<svg width="500" height="500" viewBox="0 0 500 500" fill="none" xmlns="http://www.w3.org/2000/svg">
<mask id="mask0_70_177" style="mask-type:luminance" maskUnits="userSpaceOnUse" x="125" y="104" width="250" height="213">
<path d="M125 104H375V316.898H125V104Z" fill="white"/>
</mask>
<g mask="url(#mask0_70_177)">
<path d="M373.662 209.562L322.791 165.804C311.379 154.797 303.162 148.821 287.584 135.519L252.245 105.121C250.965 104.02 249.07 104.02 247.794 105.121L126.377 209.562C125.296 210.492 124.907 211.998 125.405 213.332C125.899 214.671 127.175 215.554 128.607 215.554H153.881V313.518C153.881 315.401 155.41 316.93 157.293 316.93C159.176 316.93 160.705 315.401 160.705 313.518V212.146C160.705 210.263 159.176 208.738 157.293 208.738H137.796L250.019 112.202L288.771 145.537C298.147 153.616 308.212 162.301 317.153 169.951L362.239 208.738H342.746C340.859 208.738 339.33 210.263 339.33 212.146V313.518C339.33 315.401 340.859 316.93 342.746 316.93C344.629 316.93 346.158 315.401 346.158 313.518V215.554H371.436C372.86 215.554 374.14 214.671 374.634 213.332C375.128 211.998 374.743 210.492 373.662 209.562Z" fill="#245580"/>
</g>
<mask id="mask1_70_177" style="mask-type:luminance" maskUnits="userSpaceOnUse" x="180" y="215" width="100" height="103">
<path d="M180.279 215.996H279.426V317.064H180.279V215.996Z" fill="white"/>
</mask>
<g mask="url(#mask1_70_177)">
<path d="M246.669 272.641C246.447 272.558 246.22 272.503 245.998 272.423C254.412 266.924 259.853 257.26 259.954 246.9C259.828 234.092 251.819 222.74 239.833 218.324C228.172 214.028 214.328 217.853 206.473 227.482C198.426 237.346 197.118 251.492 203.737 262.498C206.221 266.631 209.602 269.993 213.511 272.45C205.074 275.359 197.393 280.479 191.611 287.521C184.663 295.983 180.829 306.405 180.279 317.004H187.802C188.182 310.235 190.122 303.536 193.688 297.607C202.685 282.646 220.658 274.541 237.799 278.006C255.096 281.501 268.523 295.58 271.294 313.042C271.503 314.354 271.603 315.678 271.665 317.006H279.209C278.148 297.17 265.361 279.612 246.669 272.643V272.641ZM212.146 261.334C206.024 254.04 205.413 243.227 210.277 235.136C215.075 227.155 224.725 222.703 233.897 224.537C244.576 226.672 252.273 235.995 252.383 246.9C252.289 256.244 246.483 265.06 237.582 268.239C228.458 271.502 218.377 268.761 212.144 261.334H212.146Z" fill="#245580"/>
</g>
<mask id="mask2_70_177" style="mask-type:luminance" maskUnits="userSpaceOnUse" x="243" y="196" width="77" height="102">
<path d="M243.077 196.587H319.222V297.486H243.077V196.587Z" fill="white"/>
</mask>
<g mask="url(#mask2_70_177)">
<path d="M286.684 252.713C286.464 252.63 286.233 252.573 286.01 252.495C294.424 246.997 299.865 237.333 299.969 226.972C299.843 214.164 291.832 202.812 279.848 198.397C268.184 194.1 254.341 197.925 246.486 207.555C245.419 208.862 244.475 210.255 243.648 211.695C245.998 212.655 248.231 213.813 250.303 215.19C255.106 207.22 264.745 202.775 273.912 204.607C284.586 206.744 292.288 216.067 292.395 226.972C292.304 236.316 286.498 245.133 277.597 248.311C274.239 249.511 270.758 249.894 267.385 249.534C267.17 252.273 266.675 254.934 265.922 257.494C269.849 257.119 273.855 257.275 277.814 258.076C295.109 261.571 308.536 275.65 311.309 293.112C311.517 294.422 311.616 295.748 311.678 297.076H319.224C318.163 277.237 305.375 259.682 286.684 252.713Z" fill="#F1634D"/>
</g>
<path d="M152.96 386.528C151.328 386.528 150.08 386.272 149.216 385.76C148.352 385.248 147.792 384.304 147.536 382.928L146.24 376.784C145.888 375.152 145.312 374.032 144.512 373.424C143.744 372.816 142.576 372.512 141.008 372.512H136.4V370.304H141.728C144 370.304 145.632 369.744 146.624 368.624C147.616 367.504 148.112 366.128 148.112 364.496C148.112 360.848 146.096 359.024 142.064 359.024H136.352V356.72H142.976C146.4 356.72 149.04 357.392 150.896 358.736C152.784 360.048 153.728 361.888 153.728 364.256C153.728 365.44 153.408 366.576 152.768 367.664C152.128 368.752 151.104 369.664 149.696 370.4C148.32 371.104 146.496 371.536 144.224 371.696L144.32 371.312C146.816 371.44 148.624 372.016 149.744 373.04C150.864 374.032 151.68 375.616 152.192 377.792L153.872 384.848L151.376 383.36L156.944 383.984V386C156.208 386.192 155.568 386.32 155.024 386.384C154.48 386.48 153.792 386.528 152.96 386.528ZM129.728 386V383.984L135.776 383.312H136.88L142.976 383.984V386H129.728ZM133.376 386C133.44 383.792 133.472 381.552 133.472 379.28C133.504 376.976 133.52 374.656 133.52 372.32V370.4C133.52 368.128 133.504 365.856 133.472 363.584C133.472 361.28 133.44 358.992 133.376 356.72H139.232C139.168 358.992 139.136 361.264 139.136 363.536C139.136 365.808 139.136 368.192 139.136 370.688V372.032C139.136 374.464 139.136 376.832 139.136 379.136C139.136 381.44 139.168 383.728 139.232 386H133.376ZM135.776 359.408L129.728 358.784V356.72H136.352V359.408H135.776ZM169.679 386.576C167.695 386.576 165.887 386.144 164.255 385.28C162.655 384.384 161.375 383.12 160.415 381.488C159.487 379.824 159.023 377.808 159.023 375.44C159.023 373.104 159.503 371.104 160.463 369.44C161.455 367.744 162.751 366.464 164.351 365.6C165.983 364.704 167.759 364.256 169.679 364.256C171.535 364.256 173.263 364.704 174.863 365.6C176.495 366.464 177.807 367.728 178.799 369.392C179.791 371.056 180.287 373.072 180.287 375.44C180.287 377.808 179.807 379.824 178.847 381.488C177.919 383.152 176.639 384.416 175.007 385.28C173.407 386.144 171.631 386.576 169.679 386.576ZM169.679 384.464C171.247 384.464 172.447 383.728 173.279 382.256C174.143 380.784 174.575 378.544 174.575 375.536C174.575 372.464 174.143 370.176 173.279 368.672C172.447 367.168 171.247 366.416 169.679 366.416C166.383 366.416 164.735 369.456 164.735 375.536C164.735 381.488 166.383 384.464 169.679 384.464ZM194.241 386.576C192.257 386.576 190.449 386.144 188.817 385.28C187.217 384.384 185.937 383.12 184.977 381.488C184.049 379.824 183.585 377.808 183.585 375.44C183.585 373.104 184.065 371.104 185.025 369.44C186.017 367.744 187.313 366.464 188.913 365.6C190.545 364.704 192.321 364.256 194.241 364.256C196.097 364.256 197.825 364.704 199.425 365.6C201.057 366.464 202.369 367.728 203.361 369.392C204.353 371.056 204.849 373.072 204.849 375.44C204.849 377.808 204.369 379.824 203.409 381.488C202.481 383.152 201.201 384.416 199.569 385.28C197.969 386.144 196.193 386.576 194.241 386.576ZM194.241 384.464C195.809 384.464 197.009 383.728 197.841 382.256C198.705 380.784 199.137 378.544 199.137 375.536C199.137 372.464 198.705 370.176 197.841 368.672C197.009 367.168 195.809 366.416 194.241 366.416C190.945 366.416 189.297 369.456 189.297 375.536C189.297 381.488 190.945 384.464 194.241 384.464ZM237.188 386C237.22 385.328 237.252 384.448 237.284 383.36C237.316 382.272 237.332 381.136 237.332 379.952C237.332 378.736 237.332 377.664 237.332 376.736V372.704C237.332 370.816 237.092 369.552 236.612 368.912C236.132 368.24 235.332 367.904 234.212 367.904C232.356 367.904 230.42 368.96 228.404 371.072L227.828 369.104H228.308C229.556 367.376 230.868 366.144 232.244 365.408C233.62 364.64 235.06 364.256 236.564 364.256C238.516 364.256 240.004 364.88 241.028 366.128C242.052 367.376 242.564 369.344 242.564 372.032V376.736C242.564 377.664 242.564 378.736 242.564 379.952C242.596 381.136 242.612 382.272 242.612 383.36C242.644 384.448 242.66 385.328 242.66 386H237.188ZM208.004 386V384.224L212.516 383.36H214.628L218.9 384.224V386H208.004ZM210.836 386C210.868 385.328 210.884 384.448 210.884 383.36C210.916 382.24 210.932 381.088 210.932 379.904C210.964 378.688 210.98 377.632 210.98 376.736V374.432C210.98 373.216 210.964 372.256 210.932 371.552C210.932 370.816 210.9 370 210.836 369.104L207.716 368.72V367.04L215.012 364.256L215.78 364.688L216.212 369.728V376.736C216.212 377.632 216.212 378.688 216.212 379.904C216.244 381.088 216.26 382.24 216.26 383.36C216.292 384.448 216.324 385.328 216.356 386H210.836ZM221.3 386V384.224L225.716 383.36H227.828L232.1 384.224V386H221.3ZM224.084 386C224.116 385.328 224.132 384.448 224.132 383.36C224.164 382.272 224.18 381.136 224.18 379.952C224.212 378.736 224.228 377.664 224.228 376.736V372.8C224.228 371.008 223.988 369.744 223.508 369.008C223.028 368.272 222.212 367.904 221.06 367.904C220.036 367.904 219.044 368.192 218.084 368.768C217.156 369.344 216.212 370.112 215.252 371.072L214.772 369.056H215.3C216.42 367.584 217.668 366.416 219.044 365.552C220.452 364.688 221.908 364.256 223.412 364.256C225.396 364.256 226.884 364.896 227.876 366.176C228.9 367.424 229.412 369.408 229.412 372.128V376.736C229.412 377.664 229.412 378.736 229.412 379.952C229.412 381.136 229.428 382.272 229.46 383.36C229.492 384.448 229.524 385.328 229.556 386H224.084ZM234.548 386V384.224L238.868 383.36H241.028L245.3 384.224V386H234.548ZM247.846 386V384.224L252.55 383.36H255.19L259.99 384.224V386H247.846ZM250.822 386C250.854 384.464 250.886 382.928 250.918 381.392C250.95 379.856 250.966 378.304 250.966 376.736V367.568H247.654V365.312L252.742 364.64L250.966 365.6L251.014 365.12C251.206 362.848 251.542 361.024 252.022 359.648C252.502 358.272 253.286 357.04 254.374 355.952C255.398 354.96 256.502 354.256 257.686 353.84C258.87 353.392 260.022 353.168 261.142 353.168C262.262 353.168 263.27 353.376 264.166 353.792C265.062 354.208 265.622 354.912 265.846 355.904C265.814 356.64 265.542 357.248 265.03 357.728C264.55 358.176 263.862 358.4 262.966 358.4C261.718 358.4 260.534 357.664 259.414 356.192L257.782 354.608L261.814 353.696L262.582 354.992C262.326 354.864 262.054 354.752 261.766 354.656C261.478 354.528 261.206 354.464 260.95 354.464C259.99 354.464 259.094 354.864 258.262 355.664C257.366 356.56 256.742 357.888 256.39 359.648C256.07 361.376 256.006 363.776 256.198 366.848V376.736C256.198 379.84 256.246 382.928 256.342 386H250.822ZM253.558 367.568V364.88H261.526V367.568H253.558ZM263.595 386V384.224L268.059 383.36H270.171L274.587 384.224V386H263.595ZM266.427 386C266.459 385.328 266.475 384.448 266.475 383.36C266.507 382.24 266.523 381.088 266.523 379.904C266.555 378.688 266.571 377.632 266.571 376.736V374.672C266.571 373.456 266.555 372.448 266.523 371.648C266.523 370.848 266.491 370 266.427 369.104L263.259 368.72V367.04L271.179 364.256L271.899 364.688L271.755 370.928V376.736C271.755 377.632 271.755 378.688 271.755 379.904C271.787 381.088 271.803 382.24 271.803 383.36C271.835 384.448 271.867 385.328 271.899 386H266.427ZM269.163 360.128C268.203 360.128 267.403 359.84 266.763 359.264C266.123 358.656 265.803 357.904 265.803 357.008C265.803 356.048 266.123 355.28 266.763 354.704C267.403 354.128 268.203 353.84 269.163 353.84C270.059 353.84 270.827 354.128 271.467 354.704C272.107 355.28 272.427 356.048 272.427 357.008C272.427 357.904 272.107 358.656 271.467 359.264C270.827 359.84 270.059 360.128 269.163 360.128ZM293.414 386C293.446 385.328 293.462 384.448 293.462 383.36C293.494 382.272 293.51 381.136 293.51 379.952C293.542 378.736 293.558 377.664 293.558 376.736V372.608C293.558 370.848 293.318 369.632 292.838 368.96C292.358 368.256 291.574 367.904 290.486 367.904C288.63 367.904 286.614 368.96 284.438 371.072L284.054 368.816H284.726C287.094 365.776 289.798 364.256 292.838 364.256C294.726 364.256 296.198 364.896 297.254 366.176C298.31 367.424 298.838 369.408 298.838 372.128V376.736C298.838 377.664 298.838 378.736 298.838 379.952C298.838 381.136 298.854 382.272 298.886 383.36C298.918 384.448 298.95 385.328 298.982 386H293.414ZM277.238 386V384.224L281.75 383.36H283.862L288.134 384.224V386H277.238ZM280.07 386C280.102 385.328 280.118 384.448 280.118 383.36C280.15 382.24 280.166 381.088 280.166 379.904C280.198 378.688 280.214 377.632 280.214 376.736V374.432C280.214 373.216 280.198 372.256 280.166 371.552C280.166 370.816 280.134 370 280.07 369.104L276.95 368.72V367.04L284.246 364.256L285.014 364.688L285.446 369.728V376.736C285.446 377.632 285.446 378.688 285.446 379.904C285.478 381.088 285.494 382.24 285.494 383.36C285.526 384.448 285.558 385.328 285.59 386H280.07ZM290.678 386V384.224L295.094 383.36H297.206L301.526 384.224V386H290.678ZM313.216 386.576C311.488 386.576 309.952 386.144 308.608 385.28C307.264 384.384 306.208 383.12 305.44 381.488C304.672 379.856 304.288 377.904 304.288 375.632C304.288 373.328 304.72 371.328 305.584 369.632C306.448 367.904 307.6 366.576 309.04 365.648C310.512 364.72 312.112 364.256 313.84 364.256C315.152 364.256 316.32 364.544 317.344 365.12C318.368 365.696 319.344 366.64 320.272 367.952H321.184L320.752 370.496C319.664 369.344 318.704 368.528 317.872 368.048C317.04 367.568 316.192 367.328 315.328 367.328C313.824 367.328 312.528 368 311.44 369.344C310.384 370.656 309.856 372.72 309.856 375.536C309.856 378.224 310.368 380.224 311.392 381.536C312.448 382.848 313.76 383.504 315.328 383.504C316.416 383.504 317.376 383.2 318.208 382.592C319.04 381.952 319.888 381.04 320.752 379.856L321.184 382.448H320.32C319.424 383.824 318.4 384.864 317.248 385.568C316.128 386.24 314.784 386.576 313.216 386.576ZM319.744 386.48L319.216 382.256V368.48L319.408 367.952V357.728L315.952 357.296V355.616L323.968 353.648L324.688 354.032L324.496 360.272V383.696L327.424 384.224V386L319.744 386.48ZM333.818 386.432C332.826 386.432 331.978 386.112 331.274 385.472C330.602 384.8 330.266 383.968 330.266 382.976C330.266 382.016 330.602 381.2 331.274 380.528C331.978 379.824 332.826 379.472 333.818 379.472C334.81 379.472 335.642 379.824 336.314 380.528C337.018 381.2 337.37 382.016 337.37 382.976C337.37 383.968 337.018 384.8 336.314 385.472C335.642 386.112 334.81 386.432 333.818 386.432ZM340.611 386V384.224L345.075 383.36H347.187L351.603 384.224V386H340.611ZM343.443 386C343.475 385.328 343.491 384.448 343.491 383.36C343.523 382.24 343.539 381.088 343.539 379.904C343.571 378.688 343.587 377.632 343.587 376.736V374.672C343.587 373.456 343.571 372.448 343.539 371.648C343.539 370.848 343.507 370 343.443 369.104L340.275 368.72V367.04L348.195 364.256L348.915 364.688L348.771 370.928V376.736C348.771 377.632 348.771 378.688 348.771 379.904C348.803 381.088 348.819 382.24 348.819 383.36C348.851 384.448 348.883 385.328 348.915 386H343.443ZM346.179 360.128C345.219 360.128 344.419 359.84 343.779 359.264C343.139 358.656 342.819 357.904 342.819 357.008C342.819 356.048 343.139 355.28 343.779 354.704C344.419 354.128 345.219 353.84 346.179 353.84C347.075 353.84 347.843 354.128 348.483 354.704C349.123 355.28 349.443 356.048 349.443 357.008C349.443 357.904 349.123 358.656 348.483 359.264C347.843 359.84 347.075 360.128 346.179 360.128ZM364.814 386.576C361.71 386.576 359.198 385.616 357.278 383.696C355.358 381.744 354.398 379.04 354.398 375.584C354.398 373.248 354.894 371.232 355.886 369.536C356.91 367.84 358.238 366.544 359.87 365.648C361.502 364.72 363.246 364.256 365.102 364.256C367.694 364.256 369.774 365.072 371.342 366.704C372.942 368.304 373.742 370.448 373.742 373.136C373.742 374.16 373.646 374.96 373.454 375.536H356.702V373.472H366.11C367.166 373.472 367.87 373.264 368.222 372.848C368.574 372.4 368.75 371.776 368.75 370.976C368.75 369.6 368.366 368.496 367.598 367.664C366.83 366.8 365.902 366.368 364.814 366.368C364.014 366.368 363.246 366.64 362.51 367.184C361.774 367.728 361.15 368.64 360.638 369.92C360.158 371.168 359.918 372.848 359.918 374.96C359.918 377.68 360.542 379.728 361.79 381.104C363.038 382.448 364.622 383.12 366.542 383.12C367.854 383.12 368.958 382.88 369.854 382.4C370.782 381.888 371.614 381.216 372.35 380.384L373.598 381.536C371.87 384.896 368.942 386.576 364.814 386.576Z" fill="#245580"/>
</svg>
