<svg width="335" height="286" viewBox="0 0 335 286" fill="none" xmlns="http://www.w3.org/2000/svg">
<mask id="mask0_69_30" style="mask-type:luminance" maskUnits="userSpaceOnUse" x="0" y="0" width="335" height="285">
<path d="M0 0H334.667V285H0V0Z" fill="white"/>
</mask>
<g mask="url(#mask0_69_30)">
<path d="M332.875 141.312L264.776 82.7344C249.5 68 238.5 60 217.646 42.1927L170.339 1.5C168.625 0.0260415 166.089 0.0260415 164.38 1.5L1.84371 141.312C0.395795 142.557 -0.125039 144.573 0.541628 146.359C1.20309 148.151 2.91142 149.333 4.82809 149.333H38.6614V280.474C38.6614 282.995 40.7083 285.042 43.2291 285.042C45.75 285.042 47.7968 282.995 47.7968 280.474V144.771C47.7968 142.25 45.75 140.208 43.2291 140.208H17.1302L167.359 10.9792L219.234 55.6042C231.787 66.4184 245.26 78.0448 257.229 88.2865L317.583 140.208H291.49C288.964 140.208 286.917 142.25 286.917 144.771V280.474C286.917 282.995 288.964 285.042 291.49 285.042C294.01 285.042 296.057 282.995 296.057 280.474V149.333H329.896C331.802 149.333 333.516 148.151 334.177 146.359C334.839 144.573 334.323 142.557 332.875 141.312Z" fill="#245580"/>
</g>
<mask id="mask1_69_30" style="mask-type:luminance" maskUnits="userSpaceOnUse" x="74" y="149" width="133" height="137">
<path d="M74 149.925H206.725V285.221H74V149.925Z" fill="white"/>
</mask>
<g mask="url(#mask1_69_30)">
<path d="M162.874 225.753C162.576 225.643 162.273 225.569 161.975 225.462C173.239 218.101 180.523 205.164 180.657 191.295C180.489 174.149 169.768 158.953 153.723 153.042C138.112 147.291 119.58 152.411 109.065 165.302C98.2923 178.505 96.5418 197.442 105.402 212.176C108.728 217.709 113.253 222.209 118.486 225.499C107.192 229.392 96.9097 236.247 89.1689 245.674C79.8677 257.002 74.7358 270.953 74 285.141H84.0707C84.5796 276.079 87.1762 267.112 91.9494 259.175C103.994 239.147 128.054 228.298 151 232.936C174.155 237.614 192.129 256.462 195.839 279.838C196.118 281.594 196.252 283.366 196.335 285.144H206.433C205.014 258.59 187.895 235.085 162.874 225.756V225.753ZM116.659 210.618C108.464 200.854 107.646 186.378 114.157 175.547C120.58 164.863 133.498 158.904 145.776 161.359C160.071 164.216 170.375 176.697 170.522 191.295C170.397 203.803 162.625 215.606 150.709 219.861C138.495 224.23 125 220.56 116.656 210.618H116.659Z" fill="#245580"/>
</g>
<mask id="mask2_69_30" style="mask-type:luminance" maskUnits="userSpaceOnUse" x="158" y="123" width="102" height="137">
<path d="M158.066 123.943H260V259.013H158.066V123.943Z" fill="white"/>
</mask>
<g mask="url(#mask2_69_30)">
<path d="M216.44 199.077C216.146 198.966 215.836 198.89 215.539 198.785C226.802 191.425 234.086 178.488 234.224 164.619C234.055 147.472 223.332 132.276 207.289 126.365C191.676 120.614 173.144 125.734 162.628 138.625C161.2 140.375 159.937 142.239 158.83 144.168C161.975 145.452 164.964 147.003 167.739 148.846C174.168 138.177 187.071 132.227 199.343 134.679C213.632 137.54 223.942 150.02 224.086 164.619C223.963 177.126 216.192 188.929 204.275 193.184C199.781 194.791 195.121 195.303 190.606 194.821C190.317 198.488 189.655 202.05 188.647 205.478C193.904 204.975 199.266 205.183 204.567 206.256C227.719 210.935 245.693 229.782 249.405 253.158C249.684 254.911 249.816 256.686 249.899 258.464H260C258.581 231.907 241.462 208.405 216.44 199.077Z" fill="#F1634D"/>
</g>
</svg>
